<svg width="14" height="14" viewBox="0 0 14 14" fill="" xmlns="http://www.w3.org/2000/svg">
    <path
        d="M14 0.782609C14 0.695652 14 0.608696 13.9136 0.521739C13.9136 0.434783 13.8272 0.347826 13.7407 0.26087C13.7407 0.26087 13.6543 0.26087 13.6543 0.173913C13.5679 0.0869565 13.5679 0.0869565 13.4815 0.0869565H13.3951C13.3086 0.0869565 13.2222 0 13.1358 0H0.864198C0.345679 0 1.76606e-08 0.347826 1.76606e-08 0.869565C1.76606e-08 1.3913 0.345679 1.73913 0.864198 1.73913H10.9753L0.259259 12.5217C-0.0864198 12.8696 -0.0864198 13.3913 0.259259 13.7391C0.432099 13.913 0.691358 14 0.864198 14C1.03704 14 1.2963 13.913 1.46914 13.7391L12.1852 2.95652V13.1304C12.1852 13.6522 12.5309 14 13.0494 14C13.5679 14 13.9136 13.6522 13.9136 13.1304L14 0.782609Z"
        fill=""/>
</svg>
