<svg width="140" height="30" viewBox="0 0 140 30" fill="none" xmlns="http://www.w3.org/2000/svg">
<g id="artevide 1" clip-path="url(#clip0_52_1329)">
<g id="&#208;&#161;&#208;&#187;&#208;&#190;&#208;&#185; 2">
<g id="&#208;&#161;&#208;&#187;&#208;&#190;&#208;&#185; 1">
<path id="Vector" d="M53.1009 9.72194V22.23H49.1996V21.2317C48.149 22.1691 46.7869 22.6596 45.3932 22.6025C44.6002 22.6142 43.8137 22.4551 43.085 22.1355C42.3563 21.8158 41.7016 21.3429 41.1638 20.7475C40.5782 20.1107 40.1226 19.3611 39.8234 18.5426C39.5241 17.724 39.3874 16.8528 39.421 15.9797C39.3888 15.1079 39.5262 14.2382 39.8254 13.4211C40.1245 12.6039 40.5795 11.8555 41.1638 11.2193C41.6998 10.6205 42.3537 10.1443 43.0826 9.82199C43.8116 9.49972 44.599 9.33868 45.3932 9.34945C46.7869 9.29234 48.149 9.78287 49.1996 10.7202V9.72194H53.1009ZM46.1953 19.2129C46.5896 19.2153 46.9803 19.136 47.3438 18.9798C47.7073 18.8236 48.036 18.5937 48.31 18.304C48.6054 17.9989 48.8367 17.6353 48.9896 17.2357C49.1426 16.836 49.2141 16.4086 49.1996 15.9797C49.2115 15.5511 49.1389 15.1245 48.9861 14.7252C48.8332 14.3258 48.6033 13.962 48.31 13.6554C48.0366 13.3644 47.7082 13.1331 47.3447 12.9756C46.9812 12.8181 46.5902 12.7376 46.1953 12.7391C45.7984 12.7255 45.4033 12.7996 45.0371 12.9565C44.6708 13.1133 44.3421 13.3492 44.0733 13.6479C43.5118 14.2858 43.2162 15.1225 43.2493 15.9797C43.2135 16.8396 43.5093 17.6795 44.0733 18.3189C44.3451 18.6126 44.6748 18.8441 45.0405 18.9982C45.4063 19.1523 45.7999 19.2255 46.1953 19.2129Z" fill="#555555"/>
<path id="Vector_2" d="M64.0457 9.55043C64.3344 9.55937 64.6209 9.6044 64.8989 9.68453L64.7531 13.6329H64.0239C61.2091 13.6329 59.8042 15.1948 59.8091 18.3187V22.2298H55.9297V9.72177H59.8309V12.1131C60.2341 11.3306 60.841 10.6772 61.5848 10.225C62.3286 9.77272 63.1803 9.53928 64.0457 9.55043Z" fill="#555555"/>
<path id="Vector_3" d="M74.9918 18.5424L75.896 21.6787C74.8763 22.2682 73.7277 22.5859 72.5562 22.6025C71.9043 22.6441 71.2507 22.5529 70.6336 22.3342C70.0164 22.1155 69.448 21.7737 68.9613 21.3286C68.5073 20.8318 68.1589 20.2444 67.9381 19.6033C67.7172 18.9623 67.6286 18.2815 67.6778 17.6037V12.8881H65.4902V9.72193H67.6778V5.99707H71.5791V9.72193H75.2251V12.8881H71.5791V17.2238C71.5791 18.4306 72.126 19.0415 73.2125 19.0415C73.8386 19.0407 74.4531 18.8683 74.9918 18.5424Z" fill="#555555"/>
<path id="Vector_4" d="M89.1376 15.9796V17.0002H80.1611C80.2889 17.677 80.6233 18.2951 81.1163 18.7657C81.5762 19.1936 82.1789 19.4255 82.8008 19.4139C83.3248 19.4539 83.8489 19.339 84.3106 19.0827C84.7723 18.8263 85.1519 18.4396 85.404 17.9686L88.8678 18.7136C88.4105 19.9105 87.5869 20.9243 86.5197 21.6041C85.3942 22.2801 84.106 22.6208 82.8008 22.5874C81.9538 22.6064 81.1117 22.452 80.324 22.1335C79.5362 21.8149 78.8189 21.3386 78.2141 20.7325C77.592 20.116 77.1032 19.3733 76.7792 18.5521C76.4551 17.7309 76.3031 16.8495 76.3327 15.9647C76.3045 15.0811 76.4573 14.2012 76.7813 13.3815C77.1053 12.5617 77.5933 11.8202 78.2141 11.2043C78.8205 10.5931 79.5409 10.1127 80.3326 9.79148C81.1243 9.47027 81.9711 9.31483 82.8227 9.33441C83.6498 9.31568 84.4721 9.46916 85.2393 9.78551C86.0065 10.1019 86.7027 10.5744 87.2854 11.1745C87.8941 11.8074 88.3718 12.559 88.69 13.3845C89.0082 14.2101 89.1604 15.0926 89.1376 15.9796ZM82.8227 12.5899C82.2545 12.5887 81.7006 12.7713 81.2403 13.1114C80.7403 13.453 80.3758 13.9654 80.2121 14.5567H85.3165C85.1834 13.9666 84.8566 13.4408 84.3905 13.0667C83.9344 12.7338 83.3827 12.566 82.8227 12.5899Z" fill="#555555"/>
<path id="Vector_5" d="M103.598 9.68457L98.4936 22.215H94.5195L89.415 9.68457H93.535L96.4519 17.4025L99.3687 9.68457H103.598Z" fill="#555555"/>
<path id="Vector_6" d="M105.735 4.46982C106.048 4.15209 106.445 3.93457 106.877 3.84394C107.309 3.7533 107.758 3.79348 108.168 3.95955C108.579 4.12562 108.932 4.41037 109.187 4.77889C109.441 5.14741 109.584 5.58369 109.599 6.03426C109.606 6.33036 109.551 6.62451 109.439 6.89779C109.327 7.17106 109.161 7.41743 108.95 7.62105C108.514 8.04279 107.932 8.27052 107.332 8.25427C107.035 8.26594 106.739 8.21582 106.462 8.10696C106.185 7.9981 105.933 7.83277 105.72 7.62105C105.513 7.41557 105.35 7.16852 105.24 6.89544C105.131 6.62236 105.078 6.32915 105.086 6.03426C105.092 5.44582 105.325 4.88367 105.735 4.46982ZM109.293 22.2672H105.392V9.72187H109.293V22.2672Z" fill="#555555"/>
<path id="Vector_7" d="M125.176 4.29102V22.2299H121.274V21.2317C120.226 22.1679 118.866 22.6584 117.475 22.6024C116.681 22.6143 115.893 22.4552 115.164 22.1356C114.434 21.816 113.778 21.343 113.238 20.7474C112.655 20.1094 112.2 19.3597 111.901 18.5414C111.602 17.7231 111.464 16.8525 111.496 15.9796C111.465 15.108 111.604 14.2389 111.903 13.4221C112.202 12.6052 112.656 11.8566 113.238 11.2193C113.776 10.6202 114.431 10.1439 115.161 9.82169C115.891 9.49944 116.68 9.33849 117.475 9.34937C118.866 9.29342 120.226 9.78393 121.274 10.7201V4.29102H125.176ZM118.277 19.1904C118.671 19.1954 119.061 19.1172 119.424 18.9608C119.786 18.8044 120.114 18.5731 120.385 18.2816C120.681 17.9775 120.914 17.6141 121.067 17.2142C121.22 16.8143 121.29 16.3864 121.274 15.9573C121.288 15.5285 121.216 15.1013 121.063 14.7018C120.91 14.3022 120.679 13.9386 120.385 13.633C120.114 13.3404 119.787 13.108 119.424 12.9504C119.062 12.7927 118.671 12.7131 118.277 12.7166C117.88 12.703 117.485 12.7772 117.119 12.9341C116.753 13.0909 116.424 13.3268 116.155 13.6255C115.588 14.2606 115.29 15.0985 115.324 15.9573C115.288 16.8186 115.587 17.6596 116.155 18.2965C116.425 18.5942 116.754 18.8299 117.12 18.9879C117.486 19.1459 117.88 19.2226 118.277 19.2128V19.1904Z" fill="#555555"/>
<path id="Vector_8" d="M140.007 15.9797V17.0003H131.038C131.163 17.6764 131.495 18.2945 131.986 18.7659C132.446 19.1931 133.049 19.4249 133.67 19.414C134.195 19.4528 134.72 19.3373 135.182 19.0812C135.645 18.8251 136.026 18.4391 136.281 17.9688L139.745 18.7138C139.284 19.9128 138.455 20.9269 137.382 21.6042C136.256 22.2803 134.968 22.6209 133.663 22.5876C132.816 22.6091 131.973 22.4574 131.184 22.1414C130.395 21.8254 129.676 21.3515 129.069 20.7475C128.449 20.1296 127.963 19.3864 127.64 18.5655C127.317 17.7445 127.166 16.8639 127.195 15.9797C127.167 15.0968 127.319 14.2177 127.642 13.3982C127.965 12.5787 128.451 11.8367 129.069 11.2193C129.676 10.6089 130.396 10.1289 131.188 9.80772C131.98 9.48655 132.826 9.33073 133.678 9.34946C134.505 9.32777 135.328 9.47842 136.096 9.79221C136.865 10.106 137.563 10.5764 138.148 11.1746C138.758 11.8069 139.237 12.5582 139.556 13.3838C139.876 14.2094 140.029 15.0922 140.007 15.9797ZM133.692 12.5901C133.124 12.5889 132.57 12.7714 132.11 13.1116C131.621 13.4583 131.267 13.97 131.111 14.5568H136.157C136.027 13.9655 135.699 13.4389 135.231 13.0669C134.782 12.7367 134.238 12.5689 133.685 12.5901H133.692Z" fill="#555555"/>
<path id="Vector_9" d="M14.6862 30.0075C22.7971 30.0075 29.3724 23.2901 29.3724 15.0037C29.3724 6.7174 22.7971 0 14.6862 0C6.57523 0 0 6.7174 0 15.0037C0 23.2901 6.57523 30.0075 14.6862 30.0075Z" fill="#555555"/>
<path id="Vector_10" d="M11.915 4.77515C13.1547 4.77515 14.3436 5.27825 15.2202 6.17379C16.0968 7.06933 16.5892 8.28393 16.5892 9.55041V14.4523C15.3508 14.4523 14.163 13.9502 13.2867 13.0563C12.4103 12.1624 11.917 10.9497 11.915 9.68451V4.77515Z" fill="#25262A"/>
<path id="Vector_11" d="M17.5811 9.61011C18.8207 9.61011 20.0096 10.1132 20.8862 11.0088C21.7628 11.9043 22.2553 13.1189 22.2553 14.3854V14.5716C22.2581 15.2006 22.1394 15.824 21.9058 16.4059C21.6721 16.9878 21.3283 17.5169 20.894 17.9627C20.4596 18.4085 19.9434 18.7622 19.3749 19.0036C18.8063 19.245 18.1967 19.3692 17.5811 19.3692V9.61011Z" fill="#25262A"/>
<path id="Vector_12" d="M7.11667 14.6387H11.9805C12.5872 14.6396 13.1879 14.7628 13.748 15.0012C14.3081 15.2395 14.8168 15.5884 15.2448 16.0278C15.6729 16.4671 16.0119 16.9884 16.2426 17.5618C16.4732 18.1351 16.591 18.7493 16.589 19.3692H11.7252C10.501 19.3692 9.32697 18.8724 8.46133 17.9881C7.59569 17.1037 7.10938 15.9042 7.10938 14.6536L7.11667 14.6387Z" fill="#25262A"/>
<path id="Vector_13" d="M11.4633 20.4495H16.5677V25.2247H16.1156C14.8759 25.2247 13.687 24.7216 12.8104 23.8261C11.9339 22.9306 11.4414 21.7159 11.4414 20.4495H11.4633Z" fill="#25262A"/>
</g>
</g>
</g>
<defs>
<clipPath id="clip0_52_1329">
<rect width="140" height="30" fill="white"/>
</clipPath>
</defs>
</svg>
