<svg width="32" height="32" viewBox="0 0 32 32" fill="none" xmlns="http://www.w3.org/2000/svg">
<path d="M26.667 2.66663H5.34699C3.88033 2.66663 2.68033 3.86663 2.68033 5.33329L2.66699 29.3333L8.00033 24H26.667C28.1337 24 29.3337 22.8 29.3337 21.3333V5.33329C29.3337 3.86663 28.1337 2.66663 26.667 2.66663ZM26.667 21.3333H6.89366L5.33366 22.8933V5.33329H26.667V21.3333ZM16.0003 13.3333C17.467 13.3333 18.667 12.1333 18.667 10.6666C18.667 9.19996 17.467 7.99996 16.0003 7.99996C14.5337 7.99996 13.3337 9.19996 13.3337 10.6666C13.3337 12.1333 14.5337 13.3333 16.0003 13.3333ZM21.3337 17.9066C21.3337 16.8266 20.6937 15.8666 19.707 15.44C18.5737 14.9466 17.3203 14.6666 16.0003 14.6666C14.6803 14.6666 13.427 14.9466 12.2937 15.44C11.307 15.8666 10.667 16.8266 10.667 17.9066V18.6666H21.3337V17.9066Z" fill="#B82626"/>
</svg>
