<svg width="33" height="32" viewBox="0 0 33 32" fill="none" xmlns="http://www.w3.org/2000/svg">
<g id="3p" clip-path="url(#clip0_119_409)">
<path id="Vector" d="M7.77273 12.5476C7.77273 11.3224 8.74727 10.3333 9.95455 10.3333C11.1618 10.3333 12.1364 11.3224 12.1364 12.5476C12.1364 13.7729 11.1618 14.7619 9.95455 14.7619C8.74727 14.7619 7.77273 13.7729 7.77273 12.5476ZM15.0455 24.3571C18.4345 24.3571 21.3145 22.2019 22.4782 19.1905H7.61273C8.77636 22.2019 11.6564 24.3571 15.0455 24.3571ZM20.1364 14.7619C21.3436 14.7619 22.3182 13.7729 22.3182 12.5476C22.3182 11.3224 21.3436 10.3333 20.1364 10.3333C18.9291 10.3333 17.9545 11.3224 17.9545 12.5476C17.9545 13.7729 18.9291 14.7619 20.1364 14.7619ZM29.5909 0H26.6818V2.95238H23.7727V5.90476H26.6818V8.85714H29.5909V5.90476H32.5V2.95238H29.5909V0ZM26.6818 16.2381C26.6818 22.7629 21.4745 28.0476 15.0455 28.0476C8.61636 28.0476 3.40909 22.7629 3.40909 16.2381C3.40909 9.71333 8.61636 4.42857 15.0455 4.42857C17.1691 4.42857 19.1473 5.01905 20.8636 6.02286V2.71619C19.0745 1.91905 17.1109 1.47619 15.0309 1.47619C7.00182 1.47619 0.5 8.08952 0.5 16.2381C0.5 24.3867 7.00182 31 15.0309 31C23.0745 31 29.5909 24.3867 29.5909 16.2381C29.5909 14.6881 29.3436 13.2119 28.9073 11.8095H25.8091C26.3618 13.1824 26.6818 14.6733 26.6818 16.2381Z" fill="#268010"/>
</g>
<defs>
<clipPath id="clip0_119_409">
<rect width="32" height="32" fill="white" transform="translate(0.5)"/>
</clipPath>
</defs>
</svg>
