<svg width="32" height="32" viewBox="0 0 32 32" fill="none" xmlns="http://www.w3.org/2000/svg">
<g id="face">
        <path id="Vector" d="M13.667 17.3333C13.667 18.2533 12.9203 19 12.0003 19C11.0803 19 10.3337 18.2533 10.3337 17.3333C10.3337 16.4133 11.0803 15.6666 12.0003 15.6666C12.9203 15.6666 13.667 16.4133 13.667 17.3333ZM20.0003 15.6666C19.0803 15.6666 18.3337 16.4133 18.3337 17.3333C18.3337 18.2533 19.0803 19 20.0003 19C20.9203 19 21.667 18.2533 21.667 17.3333C21.667 16.4133 20.9203 15.6666 20.0003 15.6666ZM29.3337 16C29.3337 23.36 23.3603 29.3333 16.0003 29.3333C8.64033 29.3333 2.66699 23.36 2.66699 16C2.66699 8.63996 8.64033 2.66663 16.0003 2.66663C23.3603 2.66663 29.3337 8.63996 29.3337 16ZM14.2137 5.49329C16.0803 8.58663 19.467 10.6666 23.3337 10.6666C23.947 10.6666 24.547 10.6 25.1203 10.5066C23.2537 7.41329 19.867 5.33329 16.0003 5.33329C15.387 5.33329 14.787 5.39996 14.2137 5.49329ZM5.89366 12.6266C8.17366 11.3333 9.93366 9.22663 10.7737 6.70663C8.49366 7.99996 6.73366 10.1066 5.89366 12.6266ZM26.667 16C26.667 14.96 26.507 13.96 26.227 13.0133C25.2937 13.2133 24.3337 13.3333 23.3337 13.3333C19.1603 13.3333 15.4403 11.4133 12.987 8.41329C11.587 11.8266 8.80033 14.5066 5.33366 15.8133C5.34699 15.8666 5.33366 15.9333 5.33366 16C5.33366 21.88 10.1203 26.6666 16.0003 26.6666C21.8803 26.6666 26.667 21.88 26.667 16Z" fill="#881C5D"/>
</g>
</svg>
