<svg width="33" height="32" viewBox="0 0 33 32" fill="none" xmlns="http://www.w3.org/2000/svg">
<g id="favorite_border">
<path id="Vector" d="M22.5003 3.76672C20.1803 3.76672 17.9537 4.84672 16.5003 6.55339C15.047 4.84672 12.8203 3.76672 10.5003 3.76672C6.39366 3.76672 3.16699 6.99339 3.16699 11.1001C3.16699 16.1401 7.70033 20.2467 14.567 26.4867L16.5003 28.2334L18.4337 26.4734C25.3003 20.2467 29.8337 16.1401 29.8337 11.1001C29.8337 6.99339 26.607 3.76672 22.5003 3.76672ZM16.6337 24.5001L16.5003 24.6334L16.367 24.5001C10.0203 18.7534 5.83366 14.9534 5.83366 11.1001C5.83366 8.43339 7.83366 6.43339 10.5003 6.43339C12.5537 6.43339 14.5537 7.75339 15.2603 9.58006H17.7537C18.447 7.75339 20.447 6.43339 22.5003 6.43339C25.167 6.43339 27.167 8.43339 27.167 11.1001C27.167 14.9534 22.9803 18.7534 16.6337 24.5001Z" fill="#957116"/>
</g>
</svg>
