<svg width="24" height="24" viewBox="0 0 44 28" fill="none" xmlns="http://www.w3.org/2000/svg">
<path d="M40.3333 3.83329H27.5V0.166626H40.3333V3.83329ZM43.4977 22.1666C42.6873 24.5445 39.7778 27.6666 34.1458 27.6666C28.5102 27.6666 23.9452 24.4968 23.9452 17.2625C23.9452 10.0941 28.2077 6.40913 33.9662 6.40913C39.6165 6.40913 43.0668 9.67613 43.8203 14.5235C43.9633 15.4511 44.0202 16.7015 43.9945 18.4468H29.2783C29.5167 24.3336 35.6638 24.5188 37.6897 22.1666H43.4977ZM29.4067 14.8333H38.5092C38.3167 11.9971 36.4265 10.7651 33.968 10.7651C31.2803 10.7651 29.7935 12.1731 29.4067 14.8333ZM11.8543 27.6446H0V0.205126H12.7472C22.7865 0.353626 22.9772 10.1858 17.7338 12.8661C24.079 15.1761 24.2917 27.6446 11.8543 27.6446ZM5.5 11.1666H12.0707C16.6687 11.1666 17.3983 5.66663 11.4987 5.66663H5.5V11.1666ZM11.7168 16.6666H5.5V22.196H11.6252C17.226 22.196 16.8832 16.6666 11.7168 16.6666Z" fill="#797979"/>
</svg>
