<svg width="86" height="58" viewBox="0 0 86 58" fill="none" xmlns="http://www.w3.org/2000/svg">
<g clip-path="url(#clip0_279_1110)">
<path d="M33.4468 29.0952C33.8392 29.0966 34.2285 29.0267 34.5955 28.889C34.9567 28.7609 35.3023 28.593 35.6257 28.3882L36.4335 30.082C35.9471 30.3538 35.4296 30.5665 34.892 30.7153C34.3523 30.8698 33.7935 30.9491 33.2319 30.951C32.2998 30.9713 31.376 30.7746 30.5342 30.3766C29.7735 30.0037 29.1396 29.4174 28.711 28.6901C28.2454 27.8743 28.0146 26.9469 28.044 26.0095C28.0486 25.3637 28.1743 24.7243 28.4146 24.1242C28.6651 23.4873 29.0264 22.899 29.4818 22.3863C29.9708 21.8425 30.5726 21.4103 31.2457 21.1196C32.0323 20.7867 32.881 20.6235 33.7358 20.6409C34.2928 20.6412 34.8468 20.7206 35.3811 20.8766C35.919 21.0231 36.4227 21.2733 36.8634 21.613C37.3353 21.9909 37.7196 22.4657 37.9899 23.0049C38.3314 23.6854 38.5592 24.4167 38.6643 25.17L30.2229 27.4676L29.8746 26.1273L37.0561 24.1021L36.2482 24.4556C36.0914 23.8711 35.7639 23.3458 35.307 22.9459C34.8523 22.5565 34.2694 22.3468 33.6691 22.3568C33.0596 22.3401 32.4578 22.4952 31.9332 22.8041C31.4086 23.1129 30.9827 23.5629 30.7046 24.1021C30.4377 24.6192 30.3004 25.1927 30.3044 25.7738C30.277 26.4223 30.4337 27.0654 30.7565 27.6297C31.0331 28.1019 31.4427 28.4833 31.9349 28.7269C32.4037 28.9634 32.9211 29.0894 33.4468 29.0952Z" fill="black"/>
<path d="M42.9035 12.5186H45.1269L42.9035 30.7379H40.6802L42.9035 12.5186Z" fill="black"/>
<path d="M52.2344 30.9732C51.4573 30.9787 50.6918 30.786 50.011 30.4136C49.3792 30.1094 48.8604 29.6145 48.5288 28.9996L49.0476 28.4325L48.262 35.4287H46.1201L47.9433 20.8546H49.8628L49.7739 23.3291L49.2699 22.5926C49.9003 21.9981 50.6173 21.5015 51.3969 21.1198C52.1168 20.7503 52.9138 20.5536 53.724 20.5453C54.5229 20.5348 55.3113 20.7274 56.0141 21.105C56.7101 21.4801 57.2869 22.0406 57.6797 22.7237C58.0725 23.4067 58.2657 24.1851 58.2375 24.9713C58.2493 26.0002 57.994 27.0147 57.4964 27.917C56.9789 28.847 56.2148 29.6181 55.287 30.1466C54.3593 30.6751 53.3034 30.9406 52.2344 30.9143V30.9732ZM52.1677 29.1174C52.8694 29.1291 53.5611 28.9509 54.1687 28.6019C54.7306 28.2625 55.1946 27.7843 55.5153 27.2139C55.8361 26.6435 56.0029 26.0003 55.9993 25.3469C56.0086 24.8007 55.8649 24.2627 55.5843 23.793C55.3198 23.3509 54.9411 22.9873 54.4874 22.7399C54.0332 22.4913 53.5237 22.3596 53.0052 22.357C52.494 22.3483 51.9874 22.454 51.5229 22.6663C51.0737 22.872 50.6705 23.1649 50.3371 23.5279C49.9835 23.9146 49.7068 24.3644 49.5219 24.8535L49.3069 26.6209C49.359 26.9078 49.4461 27.1872 49.5663 27.4531C49.6936 27.7517 49.8688 28.0277 50.0851 28.2705C50.3214 28.5331 50.6122 28.7416 50.9374 28.8818C51.3265 29.0448 51.7455 29.1251 52.1677 29.1174Z" fill="black"/>
<path d="M15.6451 30.7379H13.2661L16.7865 10.5596H19.1729L15.6451 30.7379Z" fill="black"/>
<path d="M24.1532 30.7379H21.7742L25.2945 10.5596H27.6883L24.1532 30.7379Z" fill="black"/>
<path d="M22.7301 39.5312L21.2479 35.3483L18.9652 39.5165H18.8985L16.853 33.1243H18.2315L19.6174 37.3219L19.1209 37.2483L20.907 34.1258L20.5512 33.0801H21.7667L23.0859 37.1378L22.8191 37.1746L25.0424 33.0801H26.4061L22.8191 39.5312H22.7301Z" fill="black"/>
<path d="M29.6449 39.3907C29.1792 39.4005 28.7207 39.2751 28.3257 39.0298C27.9134 38.772 27.5761 38.4115 27.3474 37.9841C27.079 37.4946 26.946 36.9432 26.962 36.386C26.9784 35.5053 27.3004 34.6572 27.8736 33.9853C28.1851 33.6147 28.5769 33.3189 29.0196 33.1199C29.4624 32.921 29.9447 32.8241 30.4304 32.8364C30.8223 32.8241 31.2128 32.8892 31.5792 33.0279C31.8534 33.1511 32.1042 33.3205 32.3203 33.5287C32.5262 33.728 32.6944 33.9625 32.8169 34.2209L32.6835 34.4787L32.9947 33.0868H34.2695L33.5283 39.2655H32.1647L32.3574 37.6969L32.4611 38.0725C32.3743 38.2041 32.2724 38.3252 32.1573 38.4333C31.9733 38.6 31.7749 38.7504 31.5644 38.8825C31.3061 39.0428 31.0268 39.1667 30.7343 39.2508C30.3818 39.3587 30.0134 39.406 29.6449 39.3907ZM30.386 38.2492C30.6956 38.2529 31.002 38.1875 31.2827 38.0577C31.5649 37.9388 31.8178 37.7604 32.0239 37.5349C32.2356 37.3066 32.3993 37.0388 32.5056 36.7469L32.6093 35.5244C32.574 35.2342 32.4643 34.9578 32.2907 34.7217C32.1138 34.4883 31.8823 34.3012 31.6162 34.1767C31.3198 34.0471 30.9989 33.9818 30.675 33.9853C30.3138 33.9734 29.9551 34.0492 29.63 34.2062C29.3583 34.3414 29.1203 34.5352 28.9334 34.7732C28.7555 34.991 28.6221 35.2412 28.5406 35.5097C28.4622 35.7474 28.4222 35.996 28.422 36.2461C28.4139 36.6128 28.5007 36.9754 28.674 37.2992C28.8449 37.6102 29.1021 37.8658 29.4151 38.0357C29.729 38.1937 30.079 38.2673 30.4304 38.2492H30.386Z" fill="black"/>
<path d="M38.227 39.3098L36.0037 33.0869H37.5823L39.398 38.6102L38.227 39.3098ZM36.3075 42.2555L41.4954 33.1016H42.822L37.7157 42.2408L36.3075 42.2555Z" fill="black"/>
<path d="M20.3511 52.3889C24.6576 54.7673 29.5055 56.0097 34.4324 55.9974H35.3366L36.2408 55.9238L38.0491 55.7765L39.8278 55.4525L40.7616 55.261C41.0507 55.1874 41.3397 55.099 41.6287 55.018L43.3556 54.5172L45.0305 53.8691L45.8309 53.523L46.6239 53.118C47.1575 52.8381 47.6985 52.5877 48.2099 52.3005C49.2374 51.6921 50.2273 51.0233 51.1744 50.2974C51.6265 49.9145 52.1305 49.561 52.5603 49.1854L53.8573 47.9777C55.5362 46.3148 56.9821 44.4347 58.1558 42.3881L58.6005 41.6517C58.7487 41.3939 58.8599 41.1215 58.9859 40.8563L59.727 39.273L60.3273 37.616L60.6311 36.7912L60.8387 35.9443L61.2685 34.2358L61.5131 32.4978C61.5131 32.2106 61.602 31.9234 61.6391 31.6288V30.7525L61.7206 28.9998L61.6391 27.247L61.5946 26.3707C61.5946 26.0761 61.5131 25.7889 61.476 25.5017L61.2166 23.7637L60.7868 22.0625L60.5719 21.2083L60.3347 20.3835L59.7344 18.7339L58.9933 17.1432C58.8673 16.8854 58.7561 16.6129 58.6079 16.3552L58.1558 15.6188C56.9865 13.5735 55.5429 11.6956 53.8647 10.0366L52.5603 8.82883C52.1379 8.41643 51.6339 8.09239 51.1744 7.71681C50.2275 6.99078 49.2375 6.32187 48.2099 5.71371C47.6911 5.4265 47.1501 5.17611 46.6239 4.89627L45.8235 4.49123L44.9934 4.15984L43.3259 3.51177L41.5991 3.011L40.7616 2.74588L39.8723 2.5765L38.101 2.25247L36.2926 2.10518L35.3885 2.02418H34.4843C29.5569 2.00833 24.7081 3.25091 20.403 5.6327C24.5219 2.66019 29.4044 0.90853 34.4843 0.580766C39.6208 0.267187 44.7472 1.33839 49.3216 3.68115C51.6189 4.88928 53.7447 6.39492 55.6434 8.15867C57.5473 9.93252 59.198 11.9568 60.5496 14.1753L61.0684 15.0001C61.2389 15.28 61.3649 15.5819 61.5131 15.8691L62.3654 17.6219L63.0546 19.4408L63.3955 20.3835L63.6401 21.3261C63.8032 21.9521 63.981 22.5781 64.1293 23.2114L64.4776 25.1188C64.522 25.4354 64.5813 25.7595 64.6184 26.0835L64.6777 27.0556L64.7814 28.9998L64.6703 30.9513L64.6184 31.9234C64.6184 32.2401 64.522 32.5641 64.4702 32.8881L64.1663 34.8102C64.0181 35.4436 63.8402 36.0695 63.6772 36.6955L63.4252 37.6381L63.0917 38.5587L62.4024 40.385L61.5131 42.1304C61.3649 42.425 61.2315 42.7195 61.0684 42.9994L60.5496 43.8242C57.8346 48.2698 53.9532 51.8975 49.3216 54.3184C44.7245 56.6806 39.5679 57.7573 34.4028 57.4335C29.3355 57.0945 24.4663 55.3465 20.3511 52.3889Z" fill="#8FCC26"/>
<path d="M27.8587 23.9329C26.332 24.0802 24.7979 24.2349 23.2786 24.4263C21.7593 24.6178 20.2474 24.8166 18.7429 25.067H18.6614H18.5724H18.654C15.9821 25.4876 13.3406 26.0804 10.7462 26.8418C9.47007 27.2056 8.21975 27.6533 7.00351 28.1821C5.83898 28.6651 4.75066 29.3124 3.77221 30.1042C3.5556 30.2886 3.3548 30.4906 3.1719 30.7081C3.00384 30.9031 2.85725 31.1154 2.73463 31.3414C2.51622 31.726 2.42545 32.1693 2.47524 32.6081C2.72411 33.6303 3.32768 34.5325 4.17982 35.1562C6.21654 36.7157 8.48078 37.9574 10.8944 38.8383C15.9077 40.7349 21.085 42.172 26.3617 43.1318C31.6741 44.1368 37.0344 44.8742 42.4218 45.3411L50.5075 45.8345C53.1829 45.9597 55.8954 45.9891 58.5857 45.9597C61.276 45.9302 63.9811 45.7976 66.6566 45.5473C69.322 45.3275 71.9723 44.9537 74.594 44.4279C75.8875 44.163 77.1643 43.8237 78.4182 43.4116C79.6369 43.0354 80.8081 42.5214 81.9089 41.8798C82.8962 41.3898 83.665 40.5525 84.0656 39.5306C84.3175 38.61 83.8284 37.5275 83.0354 36.5849C82.1723 35.6121 81.1741 34.7665 80.0709 34.0736C78.9469 33.34 77.7815 32.6712 76.5802 32.0705C74.1385 30.8701 71.6294 29.8104 69.0652 28.8965C71.7483 29.4888 74.384 30.2764 76.9508 31.2531C78.2692 31.7381 79.5499 32.319 80.7824 32.9911C82.0529 33.6633 83.2229 34.5086 84.2582 35.5023C84.5264 35.7735 84.7741 36.064 84.9994 36.3713C85.1105 36.5259 85.2291 36.6806 85.3329 36.85L85.6071 37.3949C85.704 37.5787 85.7763 37.7743 85.822 37.9767C85.8897 38.1782 85.9393 38.3852 85.9702 38.5953L86.0147 39.2507C86.0134 39.4705 85.9935 39.6897 85.9554 39.9062C85.7943 40.7419 85.4162 41.5213 84.8586 42.167C84.3578 42.7589 83.7795 43.2815 83.1391 43.7209C80.7097 45.2568 78.0322 46.3654 75.2239 46.998C69.8102 48.3059 64.2734 49.0464 58.7043 49.2073C55.9399 49.3178 53.1755 49.3693 50.3963 49.2073L42.1031 48.7728C36.5888 48.3321 31.1066 47.5574 25.6872 46.4531C22.9673 45.8934 20.2844 45.238 17.6164 44.4426C14.9309 43.6546 12.2952 42.7078 9.72343 41.6073C8.41642 41.0524 7.14868 40.4102 5.92888 39.6852C4.65134 38.9592 3.46046 38.0921 2.37889 37.1004C1.81062 36.5576 1.3127 35.9466 0.896646 35.2814C0.391312 34.5428 0.0827712 33.6889 -0.000113678 32.7996C-0.0583352 31.8746 0.177598 30.9549 0.674309 30.1705L1.03746 29.6403C1.17697 29.4915 1.32547 29.3513 1.48213 29.2205C1.75286 28.9283 2.05062 28.662 2.37148 28.4252C3.56506 27.5631 4.88148 26.883 6.2772 26.4073C7.59788 25.9209 8.95287 25.532 10.3312 25.2438C13.0333 24.6665 15.7719 24.2728 18.528 24.0655H18.6169C20.1585 23.9624 21.6975 23.8985 23.2341 23.874C24.7831 23.8666 26.3246 23.9035 27.8587 23.9329Z" fill="black"/>
</g>
<defs>
<clipPath id="clip0_279_1110">
<rect width="86" height="57" fill="white" transform="translate(0 0.5)"/>
</clipPath>
</defs>
</svg>
