<svg width="156" height="104" viewBox="0 0 156 104" fill="none" xmlns="http://www.w3.org/2000/svg">
<g id="helpway 2" clip-path="url(#clip0_52_1313)">
<g id="&#208;&#161;&#208;&#187;&#208;&#190;&#208;&#185; 2">
<g id="&#208;&#161;&#208;&#187;&#208;&#190;&#208;&#185; 1">
<path id="Vector" d="M60.6712 52.1747C61.3829 52.1774 62.0891 52.0498 62.7549 51.7985C63.4101 51.5649 64.0369 51.2584 64.6236 50.8848L66.0889 53.9752C65.2066 54.4712 64.2678 54.8591 63.2927 55.1308C62.3136 55.4126 61.3001 55.5574 60.2813 55.5607C58.5906 55.5978 56.9148 55.2389 55.3878 54.5127C54.008 53.8324 52.8582 52.7626 52.0807 51.4357C51.236 49.9472 50.8174 48.2551 50.8707 46.5447C50.8791 45.3663 51.107 44.1998 51.5429 43.1049C51.9975 41.9428 52.6527 40.8694 53.4788 39.9339C54.3659 38.9417 55.4575 38.1533 56.6784 37.6227C58.1053 37.0154 59.6449 36.7177 61.1955 36.7494C62.2057 36.7499 63.2107 36.8947 64.1799 37.1793C65.1557 37.4467 66.0692 37.9033 66.8687 38.523C67.7248 39.2126 68.4218 40.0788 68.9121 41.0625C69.5316 42.3043 69.9447 43.6385 70.1355 45.0129L54.8232 49.2052L54.1913 46.7597L67.2182 43.0646L65.7528 43.7096C65.4683 42.643 64.8742 41.6846 64.0455 40.955C63.2207 40.2444 62.1632 39.8618 61.0745 39.8801C59.9688 39.8497 58.8772 40.1326 57.9256 40.6962C56.974 41.2597 56.2014 42.0808 55.697 43.0646C55.2128 44.0081 54.9638 45.0544 54.971 46.1147C54.9214 47.2979 55.2055 48.4713 55.7911 49.5008C56.2928 50.3624 57.0359 51.0584 57.9286 51.5028C58.7791 51.9343 59.7175 52.1642 60.6712 52.1747Z" fill="white"/>
<path id="Vector_2" d="M77.8251 21.9287H81.8582L77.8251 55.1711H73.792L77.8251 21.9287Z" fill="white"/>
<path id="Vector_3" d="M94.7512 55.6011C93.3415 55.6111 91.9529 55.2595 90.7181 54.5799C89.572 54.025 88.6309 53.122 88.0293 52.0001L88.9704 50.9654L87.5454 63.7303H83.6602L86.9673 37.1391H90.4492L90.2879 41.6538L89.3737 40.3101C90.5172 39.2254 91.8179 38.3194 93.232 37.6228C94.5379 36.9488 95.9836 36.5898 97.4533 36.5747C98.9025 36.5554 100.333 36.907 101.607 37.5959C102.87 38.2802 103.916 39.303 104.629 40.5492C105.341 41.7955 105.692 43.2157 105.641 44.6502C105.662 46.5274 105.199 48.3785 104.296 50.0249C103.358 51.7216 101.971 53.1286 100.289 54.0928C98.6056 55.057 96.6904 55.5415 94.7512 55.4936V55.6011ZM94.6302 52.215C95.9031 52.2364 97.1578 51.9113 98.2599 51.2745C99.2792 50.6552 100.121 49.7827 100.703 48.742C101.285 47.7012 101.587 46.5277 101.581 45.3355C101.597 44.3389 101.337 43.3573 100.828 42.5003C100.348 41.6937 99.661 41.0303 98.838 40.5789C98.0142 40.1253 97.0898 39.885 96.1493 39.8802C95.2221 39.8644 94.3031 40.0573 93.4606 40.4445C92.6458 40.8198 91.9144 41.3543 91.3096 42.0166C90.6681 42.7221 90.1663 43.5428 89.8308 44.4352L89.4409 47.66C89.5353 48.1834 89.6933 48.6933 89.9114 49.1783C90.1423 49.7231 90.4602 50.2268 90.8525 50.6698C91.2812 51.1488 91.8086 51.5293 92.3985 51.7851C93.1042 52.0825 93.8644 52.229 94.6302 52.215Z" fill="white"/>
<path id="Vector_4" d="M28.3799 55.171H24.0645L30.4502 18.3545H34.779L28.3799 55.171Z" fill="white"/>
<path id="Vector_5" d="M43.8125 55.171H39.4971L45.8828 18.3545H50.2251L43.8125 55.171Z" fill="white"/>
<path id="Vector_6" d="M41.2321 71.2144L38.5434 63.5823L34.4027 71.1875H34.2817L30.5713 59.5245H33.0718L35.5858 67.1834L34.685 67.049L37.925 61.3519L37.2797 59.4438H39.4844L41.8774 66.8475L41.3934 66.9146L45.4265 59.4438H47.9001L41.3934 71.2144H41.2321Z" fill="white"/>
<path id="Vector_7" d="M53.7742 70.9591C52.9295 70.977 52.0978 70.7482 51.3812 70.3007C50.6334 69.8302 50.0217 69.1725 49.6067 68.3927C49.1198 67.4997 48.8786 66.4936 48.9076 65.477C48.9373 63.87 49.5214 62.3226 50.5612 61.0966C51.1262 60.4204 51.8369 59.8807 52.6401 59.5177C53.4432 59.1547 54.3181 58.9779 55.1992 59.0005C55.9101 58.9781 56.6184 59.0968 57.283 59.3498C57.7805 59.5746 58.2353 59.8837 58.6274 60.2635C59.0008 60.6273 59.3059 61.0551 59.5281 61.5266L59.2861 61.9969L59.8507 59.4573H62.163L60.8187 70.7307H58.3451L58.6946 67.8687L58.8828 68.554C58.7254 68.7942 58.5404 69.0151 58.3316 69.2124C57.9978 69.5166 57.638 69.7908 57.2561 70.032C56.7877 70.3243 56.2809 70.5504 55.7504 70.7038C55.111 70.9008 54.4427 70.9871 53.7742 70.9591ZM55.1186 68.8764C55.6801 68.8832 56.236 68.7638 56.7453 68.5271C57.2571 68.31 57.7158 67.9845 58.0896 67.5731C58.4736 67.1567 58.7707 66.6679 58.9635 66.1354L59.1517 63.9049C59.0875 63.3753 58.8885 62.871 58.5736 62.4403C58.2528 62.0143 57.8328 61.673 57.3502 61.446C56.8125 61.2094 56.2304 61.0903 55.6429 61.0966C54.9876 61.075 54.337 61.2133 53.7473 61.4997C53.2544 61.7465 52.8227 62.0999 52.4836 62.5343C52.161 62.9317 51.919 63.3881 51.7711 63.878C51.6289 64.3117 51.5563 64.7652 51.556 65.2217C51.5414 65.8907 51.6987 66.5523 52.0131 67.1431C52.3231 67.7105 52.7897 68.1769 53.3575 68.4868C53.9268 68.7751 54.5618 68.9094 55.1992 68.8764H55.1186Z" fill="white"/>
<path id="Vector_8" d="M69.3427 70.8113L65.3096 59.4573H68.1731L71.4668 69.5348L69.3427 70.8113ZM65.8608 76.186L75.2713 59.4841H77.6777L68.415 76.1591L65.8608 76.186Z" fill="white"/>
<path id="Vector_9" d="M36.916 94.6749C44.7278 99.0144 53.5217 101.281 62.4589 101.259H64.0991L65.7392 101.125L69.0194 100.856L72.2459 100.265L73.9398 99.9152C74.4641 99.7808 74.9884 99.6196 75.5127 99.4718L78.6451 98.5581L81.6833 97.3757L83.1353 96.7441L84.5737 96.0051C85.5417 95.4945 86.5231 95.0377 87.4507 94.5136C89.3144 93.4036 91.1101 92.1832 92.8281 90.8589C93.6482 90.1602 94.5623 89.5152 95.3421 88.8299L97.6947 86.6263C100.74 83.5923 103.363 80.1619 105.492 76.4279L106.299 75.0842C106.568 74.6139 106.769 74.1168 106.998 73.633L108.342 70.7441L109.431 67.7209L109.982 66.216L110.359 64.6708L111.138 61.5535L111.582 58.3824C111.582 57.8584 111.743 57.3343 111.811 56.7969V55.1979L111.958 52L111.811 48.802L111.73 47.2031C111.73 46.6656 111.582 46.1416 111.515 45.6175L111.044 42.4465L110.265 39.3426L109.875 37.7839L109.444 36.279L108.356 33.2692L107.011 30.3669C106.783 29.8966 106.581 29.3994 106.312 28.9292L105.492 27.5855C103.371 23.8538 100.752 20.4274 97.7082 17.4005L95.3421 15.1969C94.5758 14.4444 93.6616 13.8532 92.8281 13.1679C91.1104 11.8432 89.3147 10.6228 87.4507 9.51314C86.5096 8.98911 85.5282 8.53226 84.5737 8.02167L83.1218 7.28265L81.6161 6.678L78.5913 5.49557L75.4589 4.58187L73.9398 4.09815L72.3266 3.78911L69.1135 3.19789L65.8333 2.92916L64.1932 2.78136H62.553C53.615 2.75244 44.8194 5.0196 37.0101 9.36534C44.4817 3.94181 53.3383 0.74579 62.553 0.147765C71.8705 -0.42438 81.1695 1.5301 89.4672 5.80461C93.6343 8.00891 97.4905 10.756 100.935 13.9741C104.388 17.2106 107.383 20.9041 109.834 24.9519L110.775 26.4568C111.085 26.9674 111.313 27.5183 111.582 28.0423L113.128 31.2403L114.378 34.5591L114.997 36.279L115.44 37.9989C115.736 39.141 116.059 40.2832 116.328 41.4387L116.959 44.9188C117.04 45.4966 117.148 46.0878 117.215 46.679L117.322 48.4527L117.511 52L117.309 55.5607L117.215 57.3343C117.215 57.9121 117.04 58.5033 116.946 59.0945L116.395 62.6015C116.126 63.7571 115.803 64.8992 115.508 66.0413L115.05 67.7612L114.445 69.4408L113.195 72.7731L111.582 75.9576C111.313 76.495 111.071 77.0325 110.775 77.5431L109.834 79.048C104.909 87.1594 97.8688 93.7783 89.4672 98.1953C81.1283 102.505 71.7744 104.47 62.4052 103.879C53.2133 103.261 44.3808 100.071 36.916 94.6749Z" fill="#8FCC26"/>
<path id="Vector_10" d="M50.5348 42.7555C47.7654 43.0242 44.9825 43.3064 42.2266 43.6557C39.4706 44.0051 36.7281 44.3679 33.9991 44.8247H33.8512H33.6899H33.8378C28.9911 45.5921 24.1995 46.6738 19.4934 48.063C17.1786 48.7266 14.9106 49.5436 12.7044 50.5084C10.5919 51.3896 8.6178 52.5707 6.84293 54.0154C6.45001 54.3519 6.08577 54.7204 5.75399 55.1172C5.44914 55.4731 5.18324 55.8604 4.96081 56.2728C4.56462 56.9745 4.39996 57.7832 4.49029 58.5839C4.94173 60.4489 6.03658 62.0951 7.58232 63.233C11.2768 66.0785 15.3841 68.344 19.7623 69.9513C28.8561 73.4117 38.2475 76.0338 47.8191 77.7849C57.4557 79.6187 67.1789 80.9641 76.9515 81.8159L91.6185 82.7162C96.4717 82.9446 101.392 82.9984 106.272 82.9446C111.152 82.8909 116.059 82.649 120.912 82.1922C125.747 81.7912 130.555 81.1092 135.31 80.1498C137.657 79.6665 139.973 79.0474 142.247 78.2955C144.458 77.609 146.582 76.6713 148.579 75.5007C150.37 74.6067 151.765 73.0789 152.491 71.2144C152.948 69.5348 152.061 67.5596 150.623 65.8397C149.057 64.0649 147.246 62.5221 145.245 61.2578C143.206 59.9192 141.092 58.6989 138.913 57.603C134.484 55.4129 129.933 53.4793 125.281 51.8118C130.148 52.8925 134.929 54.3296 139.585 56.1115C141.977 56.9965 144.3 58.0564 146.536 59.2826C148.841 60.5092 150.963 62.0514 152.841 63.8645C153.327 64.3594 153.777 64.8893 154.185 65.45C154.387 65.7322 154.602 66.0144 154.79 66.3234L155.288 67.3177C155.463 67.653 155.595 68.0099 155.677 68.3792C155.8 68.7468 155.89 69.1245 155.946 69.5079L156.027 70.7038C156.025 71.1047 155.989 71.5047 155.919 71.8997C155.627 73.4245 154.941 74.8465 153.93 76.0247C153.021 77.1047 151.972 78.0582 150.811 78.8599C146.404 81.6622 141.547 83.6849 136.453 84.8392C126.633 87.2254 116.589 88.5765 106.487 88.8702C101.473 89.0718 96.4582 89.1658 91.4169 88.8702L76.3734 88.0774C66.3707 87.2732 56.4263 85.8598 46.5958 83.8449C41.662 82.8237 36.7954 81.6278 31.9556 80.1767C27.0843 78.7389 22.3033 77.0114 17.6382 75.0035C15.2673 73.9909 12.9677 72.8193 10.755 71.4966C8.43764 70.1719 6.27743 68.5898 4.31552 66.7803C3.28471 65.79 2.38149 64.6751 1.62679 63.4614C0.71014 62.1138 0.150461 60.5558 0.000111746 58.9333C-0.105499 57.2456 0.322472 55.5675 1.22348 54.1364L1.88222 53.1689C2.13529 52.8975 2.40466 52.6417 2.68884 52.403C3.17992 51.8699 3.72004 51.384 4.30208 50.9519C6.46717 49.379 8.85509 48.1381 11.3869 47.2702C13.7825 46.3827 16.2404 45.6731 18.7405 45.1472C23.6422 44.094 28.6099 43.3757 33.6092 42.9973H33.7705C36.5668 42.8092 39.3586 42.6928 42.1459 42.648C44.9556 42.6345 47.7519 42.7017 50.5348 42.7555Z" fill="white"/>
</g>
</g>
</g>
<defs>
<clipPath id="clip0_52_1313">
<rect width="156" height="104" fill="white"/>
</clipPath>
</defs>
</svg>
