<svg width="28" height="28" viewBox="0 0 28 28" fill="none" xmlns="http://www.w3.org/2000/svg">
<g id="menu_book">
<g id="Vector">
<path d="M24.5003 4.66671C23.2053 4.25837 21.782 4.08337 20.417 4.08337C18.142 4.08337 15.692 4.55004 14.0003 5.83337C12.3087 4.55004 9.85866 4.08337 7.58366 4.08337C5.30866 4.08337 2.85866 4.55004 1.16699 5.83337V22.925C1.16699 23.2167 1.45866 23.5084 1.75033 23.5084C1.86699 23.5084 1.92533 23.45 2.04199 23.45C3.61699 22.6917 5.89199 22.1667 7.58366 22.1667C9.85866 22.1667 12.3087 22.6334 14.0003 23.9167C15.5753 22.925 18.4337 22.1667 20.417 22.1667C22.342 22.1667 24.3253 22.5167 25.9587 23.3917C26.0753 23.45 26.1337 23.45 26.2503 23.45C26.542 23.45 26.8337 23.1584 26.8337 22.8667V5.83337C26.1337 5.30837 25.3753 4.95837 24.5003 4.66671ZM24.5003 20.4167C23.217 20.0084 21.817 19.8334 20.417 19.8334C18.4337 19.8334 15.5753 20.5917 14.0003 21.5834V8.16671C15.5753 7.17504 18.4337 6.41671 20.417 6.41671C21.817 6.41671 23.217 6.59171 24.5003 7.00004V20.4167Z" fill="#861E5C"/>
<path d="M20.417 11.0834C21.4437 11.0834 22.4353 11.1884 23.3337 11.3867V9.61337C22.412 9.43837 21.4203 9.33337 20.417 9.33337C18.4337 9.33337 16.637 9.67171 15.167 10.3017V12.2384C16.4853 11.4917 18.317 11.0834 20.417 11.0834Z" fill="#861E5C"/>
<path d="M15.167 13.405V15.3417C16.4853 14.595 18.317 14.1867 20.417 14.1867C21.4437 14.1867 22.4353 14.2917 23.3337 14.49V12.7167C22.412 12.5417 21.4203 12.4367 20.417 12.4367C18.4337 12.4367 16.637 12.7867 15.167 13.405Z" fill="#861E5C"/>
<path d="M20.417 15.5517C18.4337 15.5517 16.637 15.89 15.167 16.52V18.4567C16.4853 17.71 18.317 17.3017 20.417 17.3017C21.4437 17.3017 22.4353 17.4067 23.3337 17.605V15.8317C22.412 15.645 21.4203 15.5517 20.417 15.5517Z" fill="#861E5C"/>
</g>
</g>
</svg>
